<svg width="306" height="245" viewBox="0 0 306 245" fill="none" xmlns="http://www.w3.org/2000/svg">
<path d="M298.35 168.438H290.7V116.71C290.7 110.633 288.262 104.795 283.958 100.488L236.194 52.6846C231.891 48.3779 226.058 45.9375 219.985 45.9375H198.9V22.9688C198.9 10.2881 188.62 0 175.95 0H22.95C10.2797 0 0 10.2881 0 22.9688V176.094C0 188.774 10.2797 199.062 22.95 199.062H30.6C30.6 224.424 51.1594 245 76.5 245C101.841 245 122.4 224.424 122.4 199.062H183.6C183.6 224.424 204.159 245 229.5 245C254.841 245 275.4 224.424 275.4 199.062H298.35C302.557 199.062 306 195.617 306 191.406V176.094C306 171.883 302.557 168.438 298.35 168.438ZM76.5 222.031C63.8297 222.031 53.55 211.743 53.55 199.062C53.55 186.382 63.8297 176.094 76.5 176.094C89.1703 176.094 99.45 186.382 99.45 199.062C99.45 211.743 89.1703 222.031 76.5 222.031ZM145.35 103.359C145.35 105.465 143.629 107.188 141.525 107.188H114.75V133.984C114.75 136.09 113.029 137.812 110.925 137.812H87.975C85.8713 137.812 84.15 136.09 84.15 133.984V107.188H57.375C55.2713 107.188 53.55 105.465 53.55 103.359V80.3906C53.55 78.2852 55.2713 76.5625 57.375 76.5625H84.15V49.7656C84.15 47.6602 85.8713 45.9375 87.975 45.9375H110.925C113.029 45.9375 114.75 47.6602 114.75 49.7656V76.5625H141.525C143.629 76.5625 145.35 78.2852 145.35 80.3906V103.359ZM229.5 222.031C216.83 222.031 206.55 211.743 206.55 199.062C206.55 186.382 216.83 176.094 229.5 176.094C242.17 176.094 252.45 186.382 252.45 199.062C252.45 211.743 242.17 222.031 229.5 222.031ZM267.75 122.5H198.9V68.9062H219.985L267.75 116.71V122.5Z" fill="white"/>
</svg>
