<svg width="154" height="154" viewBox="0 0 154 154" fill="none" xmlns="http://www.w3.org/2000/svg">
<path d="M127.949 60.1668C124.395 51.8182 118.845 44.47 111.787 38.767C104.729 33.064 96.3796 29.1807 87.4708 27.458L95.5185 14.5819L87.3565 9.48062L76.7374 26.4712C65.9207 26.5213 55.3556 29.7394 46.3476 35.7278C37.3396 41.7161 30.2833 50.2124 26.0507 60.1668C20.3811 60.2745 14.9802 62.6024 11.0087 66.6501C7.03732 70.6977 4.8125 76.1419 4.8125 81.8125C4.8125 87.4831 7.03732 92.9273 11.0087 96.9749C14.9802 101.023 20.3811 103.35 26.0507 103.458C30.3013 113.454 37.3981 121.978 46.4574 127.97C55.5168 133.961 66.1384 137.156 77 137.156C87.8616 137.156 98.4833 133.961 107.543 127.97C116.602 121.978 123.699 113.454 127.949 103.458C133.619 103.35 139.02 101.023 142.991 96.9749C146.963 92.9273 149.188 87.4831 149.188 81.8125C149.188 76.1419 146.963 70.6977 142.991 66.6501C139.02 62.6024 133.619 60.2745 127.949 60.1668ZM136.116 90.2374C133.915 92.4888 130.915 93.7815 127.766 93.835L121.533 93.9535L119.093 99.6906C115.581 107.949 109.719 114.992 102.234 119.943C94.7495 124.894 85.974 127.534 77.0002 127.534C68.0264 127.534 59.2508 124.894 51.7662 119.943C44.2817 114.992 38.4189 107.949 34.9078 99.6906L32.4672 93.9535L26.2336 93.835C23.0839 93.7761 20.0832 92.4835 17.8767 90.2353C15.6701 87.987 14.4339 84.9627 14.4339 81.8125C14.4339 78.6623 15.6701 75.638 17.8767 73.3897C20.0832 71.1415 23.0839 69.8489 26.2336 69.79L32.4672 69.6715L34.9078 63.9344C38.419 55.676 44.2818 48.633 51.7664 43.6823C59.2509 38.7315 68.0264 36.0918 77.0002 36.0918C85.9739 36.0918 94.7494 38.7315 102.234 43.6823C109.719 48.633 115.581 55.676 119.093 63.9344L121.533 69.6715L127.766 69.79C130.116 69.8344 132.4 70.5661 134.338 71.8947C136.276 73.2233 137.782 75.0906 138.67 77.2659C139.559 79.4411 139.79 81.8289 139.336 84.1342C138.882 86.4395 137.763 88.5613 136.116 90.2374V90.2374Z" fill="#3E3E3E"/>
<path d="M50.5312 69.7812H62.5625V81.8125H50.5312V69.7812Z" fill="#3E3E3E"/>
<path d="M91.4375 69.7812H103.469V81.8125H91.4375V69.7812Z" fill="#3E3E3E"/>
<path d="M77 115.5C80.1599 115.5 83.2889 114.878 86.2083 113.668C89.1277 112.459 91.7803 110.687 94.0148 108.452C96.2492 106.218 98.0216 103.565 99.2309 100.646C100.44 97.7264 101.062 94.5974 101.062 91.4375H52.9375C52.9375 94.5974 53.5599 97.7264 54.7691 100.646C55.9784 103.565 57.7508 106.218 59.9852 108.452C64.4978 112.965 70.6182 115.5 77 115.5V115.5Z" fill="#3E3E3E"/>
</svg>
