<svg width="118" height="118" viewBox="0 0 118 118" fill="none" xmlns="http://www.w3.org/2000/svg">
<path d="M71.7092 59.3688C72.9768 57.2872 74.287 55.1348 75.5811 52.9156C79.9125 45.4904 80.7074 38.0087 77.9443 30.6779C72.369 15.8869 53.7319 6.87489 49.4173 5.43699L46.3834 4.425L41.6482 13.8973L43.9333 15.7641C43.9589 15.7846 46.4971 18.0024 46.6662 21.3645C46.8107 24.2345 45.2373 27.3359 41.9909 30.5832C39.7365 32.8374 37.2622 35.0172 34.6424 37.3246C23.62 47.0315 11.127 58.0366 11.127 78.8558C11.127 79.1417 11.1297 79.426 11.1351 79.7085C11.215 84.3028 12.2017 88.8359 14.0386 93.0477C15.8755 97.2595 18.5264 101.067 21.839 104.251C28.4908 110.721 37.4097 114.332 46.689 114.313H67.9152L65.295 108.995C54.649 87.3885 62.1777 75.0233 71.7092 59.3688ZM46.689 106.938C31.432 106.938 18.7908 94.6611 18.5087 79.5719C18.5044 79.3343 18.5022 79.0956 18.502 78.8558C18.502 61.3683 29.1856 51.9571 39.5175 42.8566C42.1078 40.5749 44.7865 38.2154 47.2057 35.7957C51.9889 31.0128 54.2855 26.0319 54.032 20.9922C53.9213 18.8565 53.3544 16.7693 52.3694 14.871C58.7856 18.3767 67.9313 25.0238 71.0436 33.2802C73.0127 38.5037 72.4133 43.7112 69.2111 49.2007C67.9516 51.36 66.6594 53.4819 65.41 55.5342C56.2648 70.5536 47.5895 84.7994 56.3176 106.938H46.689Z" fill="#3E3E3E"/>
<path d="M107.915 78.6196C107.854 78.3759 107.79 78.1312 107.723 77.8855C105.062 68.1293 90.3327 55.5849 88.662 54.1867L85.3071 51.3791L83.107 55.1606C78.0936 63.7802 73.7912 71.6419 71.9157 80.5611C69.7772 90.7326 71.2167 101.07 76.3176 112.165L77.3043 114.313H79.8113C84.227 114.325 88.5867 113.324 92.5545 111.386C96.5222 109.448 99.9922 106.625 102.697 103.135C105.385 99.7205 107.253 95.7346 108.158 91.4843C109.063 87.234 108.98 82.8327 107.915 78.6196V78.6196ZM96.8805 98.5973C95.0931 100.905 92.8545 102.825 90.3013 104.239C87.748 105.654 84.9334 106.533 82.0291 106.825C74.7599 89.3325 79.0489 77.4092 87.2446 62.7792C92.6934 67.8482 99.3339 75.1531 100.608 79.8249C100.662 80.0221 100.713 80.2183 100.762 80.4135C101.55 83.5394 101.61 86.8044 100.937 89.957C100.264 93.1096 98.8761 96.0657 96.8805 98.5973V98.5973Z" fill="#3E3E3E"/>
</svg>
