<svg width="43" height="48" viewBox="0 0 43 48" fill="none" xmlns="http://www.w3.org/2000/svg">
<mask id="path-1-inside-1_18_36" fill="white">
<path d="M4.77777 48H38.2222C39.4893 48 40.7046 47.4943 41.6006 46.5942C42.4966 45.694 43 44.4732 43 43.2002V21.601C43.0018 21.2852 42.9415 20.9721 42.8226 20.6797C42.7038 20.3873 42.5286 20.1214 42.3072 19.8971L23.1961 0.697875C22.7485 0.25089 22.143 0 21.5119 0C20.8808 0 20.2753 0.25089 19.8278 0.697875L0.716666 19.8971C0.490944 20.1194 0.311372 20.3844 0.188352 20.6769C0.0653328 20.9694 0.0013121 21.2835 0 21.601V43.2002C0 44.4732 0.503371 45.694 1.39938 46.5942C2.29538 47.4943 3.51063 48 4.77777 48ZM16.7222 43.2002V31.2007H26.2778V43.2002H16.7222ZM4.77777 22.585L21.5 5.78567L38.2222 22.585V43.2002H31.0555V31.2007C31.0555 29.9277 30.5522 28.7068 29.6561 27.8067C28.7601 26.9066 27.5449 26.4009 26.2778 26.4009H16.7222C15.4551 26.4009 14.2398 26.9066 13.3438 27.8067C12.4478 28.7068 11.9444 29.9277 11.9444 31.2007V43.2002H4.77777V22.585Z"/>
</mask>
<path d="M4.77777 48H38.2222C39.4893 48 40.7046 47.4943 41.6006 46.5942C42.4966 45.694 43 44.4732 43 43.2002V21.601C43.0018 21.2852 42.9415 20.9721 42.8226 20.6797C42.7038 20.3873 42.5286 20.1214 42.3072 19.8971L23.1961 0.697875C22.7485 0.25089 22.143 0 21.5119 0C20.8808 0 20.2753 0.25089 19.8278 0.697875L0.716666 19.8971C0.490944 20.1194 0.311372 20.3844 0.188352 20.6769C0.0653328 20.9694 0.0013121 21.2835 0 21.601V43.2002C0 44.4732 0.503371 45.694 1.39938 46.5942C2.29538 47.4943 3.51063 48 4.77777 48ZM16.7222 43.2002V31.2007H26.2778V43.2002H16.7222ZM4.77777 22.585L21.5 5.78567L38.2222 22.585V43.2002H31.0555V31.2007C31.0555 29.9277 30.5522 28.7068 29.6561 27.8067C28.7601 26.9066 27.5449 26.4009 26.2778 26.4009H16.7222C15.4551 26.4009 14.2398 26.9066 13.3438 27.8067C12.4478 28.7068 11.9444 29.9277 11.9444 31.2007V43.2002H4.77777V22.585Z" fill="black"/>
<path d="M43 21.601L33.0001 21.5435L33 21.5723V21.601H43ZM42.3072 19.8971L49.4232 12.8713L49.4089 12.8568L49.3945 12.8423L42.3072 19.8971ZM23.1961 0.697875L30.2834 -6.3569L30.2729 -6.36745L30.2624 -6.37796L23.1961 0.697875ZM19.8278 0.697875L12.7615 -6.37796L12.7509 -6.36745L12.7404 -6.3569L19.8278 0.697875ZM0.716666 19.8971L7.73299 27.0225L7.76866 26.9874L7.80398 26.9519L0.716666 19.8971ZM0 21.601L-9.99991 21.5597L-10 21.5804V21.601H0ZM0 43.2002H-10H0ZM16.7222 43.2002H6.72221V53.2002H16.7222V43.2002ZM16.7222 31.2007V21.2007H6.72221V31.2007H16.7222ZM26.2778 31.2007H36.2778V21.2007H26.2778V31.2007ZM26.2778 43.2002V53.2002H36.2778V43.2002H26.2778ZM4.77777 22.585L-2.30954 15.5302L-5.22223 18.4563V22.585H4.77777ZM21.5 5.78567L28.5873 -1.26911L21.5 -8.38911L14.4127 -1.26911L21.5 5.78567ZM38.2222 22.585H48.2222V18.4563L45.3095 15.5302L38.2222 22.585ZM38.2222 43.2002V53.2002H48.2222V43.2002H38.2222ZM31.0555 43.2002H21.0555V53.2002H31.0555V43.2002ZM11.9444 31.2007H1.94443H11.9444ZM11.9444 43.2002V53.2002H21.9444V43.2002H11.9444ZM4.77777 43.2002H-5.22223V53.2002H4.77777V43.2002ZM4.77777 58H38.2222V38H4.77777V58ZM38.2222 58C42.1564 58 45.9201 56.4295 48.6879 53.6489L34.5133 39.5394C35.489 38.5591 36.8223 38 38.2222 38V58ZM48.6879 53.6489C51.4541 50.87 53 47.1106 53 43.2002H33C33 41.8358 33.539 40.5181 34.5133 39.5394L48.6879 53.6489ZM53 43.2002V21.601H33V43.2002H53ZM52.9998 21.6586C53.0092 20.0331 52.6991 18.4206 52.0863 16.9133L33.559 24.4461C33.184 23.5236 32.9944 22.5373 33.0001 21.5435L52.9998 21.6586ZM52.0863 16.9133C51.4734 15.4059 50.5691 14.0319 49.4232 12.8713L35.1912 26.9229C34.488 26.2108 33.9341 25.3687 33.559 24.4461L52.0863 16.9133ZM49.3945 12.8423L30.2834 -6.3569L16.1088 7.75265L35.2199 26.9519L49.3945 12.8423ZM30.2624 -6.37796C27.9447 -8.69255 24.7997 -10 21.5119 -10V10C19.4864 10 17.5523 9.19433 16.1298 7.77371L30.2624 -6.37796ZM21.5119 -10C18.2241 -10 15.0792 -8.69255 12.7615 -6.37796L26.8941 7.77371C25.4715 9.19433 23.5375 10 21.5119 10V-10ZM12.7404 -6.3569L-6.37065 12.8423L7.80398 26.9519L26.9151 7.75265L12.7404 -6.3569ZM-6.29966 12.7717C-7.46817 13.9223 -8.39526 15.292 -9.02951 16.7999L9.40621 24.5539C9.018 25.4769 8.45006 26.3164 7.73299 27.0225L-6.29966 12.7717ZM-9.02951 16.7999C-9.66372 18.3078 -9.99316 19.9255 -9.99991 21.5597L9.99991 21.6424C9.99579 22.6415 9.79439 23.631 9.40621 24.5539L-9.02951 16.7999ZM-10 21.601V43.2002H10V21.601H-10ZM-10 43.2002C-10 47.1105 -8.45419 50.8699 -5.68794 53.6489L8.4867 39.5394C9.46093 40.5181 10 41.8358 10 43.2002H-10ZM-5.68794 53.6489C-2.92015 56.4295 0.843577 58 4.77777 58V38C6.17768 38 7.51092 38.5591 8.4867 39.5394L-5.68794 53.6489ZM26.7222 43.2002V31.2007H6.72221V43.2002H26.7222ZM16.7222 41.2007H26.2778V21.2007H16.7222V41.2007ZM16.2778 31.2007V43.2002H36.2778V31.2007H16.2778ZM26.2778 33.2002H16.7222V53.2002H26.2778V33.2002ZM11.8651 29.6398L28.5873 12.8405L14.4127 -1.26911L-2.30954 15.5302L11.8651 29.6398ZM14.4127 12.8405L31.1349 29.6398L45.3095 15.5302L28.5873 -1.26911L14.4127 12.8405ZM28.2222 22.585V43.2002H48.2222V22.585H28.2222ZM38.2222 33.2002H31.0555V53.2002H38.2222V33.2002ZM41.0555 43.2002V31.2007H21.0555V43.2002H41.0555ZM41.0555 31.2007C41.0555 27.2903 39.5097 23.5309 36.7435 20.7519L22.5688 34.8615C21.5946 33.8827 21.0555 32.565 21.0555 31.2007H41.0555ZM36.7435 20.7519C33.9757 17.9714 30.212 16.4009 26.2778 16.4009V36.4009C24.8778 36.4009 23.5446 35.8417 22.5688 34.8615L36.7435 20.7519ZM26.2778 16.4009H16.7222V36.4009H26.2778V16.4009ZM16.7222 16.4009C12.788 16.4009 9.02427 17.9714 6.25649 20.7519L20.4311 34.8615C19.4554 35.8417 18.1221 36.4009 16.7222 36.4009V16.4009ZM6.25649 20.7519C3.49026 23.5309 1.94443 27.2903 1.94443 31.2007H21.9444C21.9444 32.565 21.4054 33.8828 20.4311 34.8615L6.25649 20.7519ZM1.94443 31.2007V43.2002H21.9444V31.2007H1.94443ZM11.9444 33.2002H4.77777V53.2002H11.9444V33.2002ZM14.7778 43.2002V22.585H-5.22223V43.2002H14.7778Z" fill="#F5F5F5" mask="url(#path-1-inside-1_18_36)"/>
</svg>
