<svg width="59" height="59" viewBox="0 0 59 59" fill="none" xmlns="http://www.w3.org/2000/svg">
<path fill-rule="evenodd" clip-rule="evenodd" d="M4.87974 14.6745C4.87507 13.3943 5.37914 12.1647 6.28107 11.2562C7.18299 10.3476 8.40888 9.8346 9.68906 9.82993L48.3044 9.68908C49.5846 9.68441 50.8142 10.1885 51.7228 11.0904C52.6313 11.9923 53.1443 13.2182 53.149 14.4984C53.1536 15.7786 52.6496 17.0082 51.7476 17.9167C50.8457 18.8252 49.6198 19.3383 48.3397 19.3429L9.72427 19.4838C8.44409 19.4884 7.21449 18.9844 6.30596 18.0825C5.39744 17.1805 4.88441 15.9546 4.87974 14.6745ZM4.93256 29.1552C4.92789 27.8751 5.43196 26.6454 6.33388 25.7369C7.23581 24.8284 8.4617 24.3154 9.74188 24.3107L48.3573 24.1699C49.6374 24.1652 50.867 24.6693 51.7756 25.5712C52.6841 26.4731 53.1971 27.699 53.2018 28.9792C53.2065 30.2594 52.7024 31.489 51.8005 32.3975C50.8985 33.306 49.6727 33.819 48.3925 33.8237L9.77709 33.9645C8.49691 33.9692 7.26731 33.4651 6.35878 32.5632C5.45026 31.6613 4.93723 30.4354 4.93256 29.1552ZM4.98538 43.636C4.98071 42.3558 5.48478 41.1262 6.3867 40.2177C7.28862 39.3092 8.51452 38.7961 9.79469 38.7915L48.4101 38.6506C49.6903 38.646 50.9199 39.15 51.8284 40.052C52.7369 40.9539 53.2499 42.1798 53.2546 43.4599C53.2593 44.7401 52.7552 45.9697 51.8533 46.8783C50.9514 47.7868 49.7255 48.2998 48.4453 48.3045L9.82991 48.4453C8.54973 48.45 7.32012 47.9459 6.4116 47.044C5.50307 46.1421 4.99005 44.9162 4.98538 43.636Z" fill="white"/>
</svg>
