<svg width="138" height="125" viewBox="0 0 138 125" fill="none" xmlns="http://www.w3.org/2000/svg">
<path d="M88.8806 16.6745C89.0413 16.3604 89.1313 16.0204 89.1453 15.6745C89.1592 15.3285 89.0969 14.9836 88.9619 14.6597C88.8269 14.3358 88.622 14.0396 88.3592 13.7883C88.0963 13.537 87.7808 13.3357 87.431 13.1962C87.0813 13.0566 86.7043 12.9816 86.3222 12.9756C85.94 12.9696 85.5604 13.0327 85.2055 13.1611C84.8506 13.2895 84.5276 13.4808 84.2552 13.7236C83.9829 13.9665 83.7667 14.2561 83.6194 14.5755L83.6079 14.5963L83.5705 14.6745C83.3216 15.1821 83.0666 15.6874 82.8058 16.1901C79.5055 22.5941 75.8987 28.8648 71.9958 34.9844C64.8658 46.1276 55.4904 58.4661 46.0259 64.6458C33.5369 72.7656 29.7821 82.75 32.4128 91.1094C34.9888 99.2995 43.5246 105.138 53.6015 105.138H62.8849C64.888 105.138 66.809 105.859 68.2254 107.142C69.6418 108.425 70.4375 110.165 70.4375 111.979H76.1875C76.1875 108.783 74.786 105.719 72.2913 103.459C69.7965 101.199 66.413 99.9297 62.8849 99.9297H61.2289C61.8729 99.0547 62.9021 98.1979 64.4661 97.5391C67.3239 96.3307 72.1711 95.7161 79.8474 97.3307C80.2158 97.41 80.5979 97.4225 80.9717 97.3676C81.3455 97.3127 81.7036 97.1915 82.0256 97.0109C82.3475 96.8303 82.6268 96.5938 82.8476 96.3151C83.0683 96.0364 83.2261 95.721 83.3119 95.3869C83.3977 95.0528 83.4097 94.7066 83.3474 94.3683C83.2851 94.03 83.1495 93.7061 82.9486 93.4154C82.7477 93.1246 82.4854 92.8727 82.1767 92.674C81.868 92.4754 81.519 92.3339 81.1498 92.2578C72.7289 90.487 66.4585 90.9479 62.0339 92.8177C58.1325 94.4661 55.8383 97.151 54.9585 99.9271H53.6015C45.9914 99.9271 39.7871 95.5443 37.9443 89.6797C36.1503 83.9844 38.2921 76.0833 49.381 68.875L49.3868 68.8724C59.938 61.9844 69.8309 48.7552 76.9724 37.5964C80.9626 31.3394 84.65 24.928 88.0239 18.3802C88.2938 17.8539 88.5602 17.3261 88.8231 16.7969L88.8663 16.7083L88.8806 16.6797V16.6745L86.25 15.625L88.8806 16.6745V16.6745ZM102.799 91.1224C101.304 96.5651 97.5746 101.484 93.5209 103.773L90.4762 99.349C93.012 97.9167 96.0049 94.2786 97.2152 89.8646C98.3911 85.5755 97.7759 80.9896 93.8802 77.3255L98.0203 73.7109C103.618 78.9766 104.322 85.5521 102.793 91.1198L102.799 91.1224Z" fill="#3E3E3E"/>
</svg>
