<svg width="143" height="143" viewBox="0 0 143 143" fill="none" xmlns="http://www.w3.org/2000/svg">
<path fill-rule="evenodd" clip-rule="evenodd" d="M50.6458 17.875H56.6042V11.9167H38.7292V17.875H44.6875V23.8333H38.2227C37.5199 21.8448 36.1367 20.1687 34.3176 19.1014C32.4985 18.034 30.3606 17.6442 28.2819 18.0007C26.2031 18.3572 24.3173 19.4372 22.9578 21.0497C21.5984 22.6622 20.8527 24.7034 20.8527 26.8125C20.8527 28.9216 21.5984 30.9628 22.9578 32.5753C24.3173 34.1878 26.2031 35.2678 28.2819 35.6243C30.3606 35.9809 32.4985 35.591 34.3176 34.5237C36.1367 33.4563 37.5199 31.7802 38.2227 29.7917H44.6875V35.9973C40.5224 36.7025 36.7415 38.8596 34.0149 42.0862C31.2884 45.3129 29.7922 49.4006 29.7917 53.625V128.104C29.7917 128.894 30.1056 129.652 30.6643 130.211C31.223 130.769 31.9807 131.083 32.7708 131.083H62.5625C63.3526 131.083 64.1104 130.769 64.6691 130.211C65.2278 129.652 65.5417 128.894 65.5417 128.104V53.625C65.5411 49.4006 64.045 45.3129 61.3184 42.0862C58.5918 38.8596 54.8109 36.7025 50.6458 35.9973V29.7917H65.5417V23.8333H50.6458V17.875ZM47.6667 41.7083C44.5062 41.7083 41.4751 42.9638 39.2403 45.1987C37.0055 47.4335 35.75 50.4645 35.75 53.625V59.5833H59.5833V53.625C59.5833 50.4645 58.3278 47.4335 56.093 45.1987C53.8582 42.9638 50.8272 41.7083 47.6667 41.7083V41.7083ZM35.75 125.125V65.5417H59.5833V125.125H35.75ZM26.8125 26.8125C26.8125 26.0224 27.1264 25.2646 27.6851 24.7059C28.2438 24.1472 29.0016 23.8333 29.7917 23.8333C30.5818 23.8333 31.3396 24.1472 31.8983 24.7059C32.457 25.2646 32.7708 26.0224 32.7708 26.8125C32.7708 27.6026 32.457 28.3604 31.8983 28.9191C31.3396 29.4778 30.5818 29.7917 29.7917 29.7917C29.0016 29.7917 28.2438 29.4778 27.6851 28.9191C27.1264 28.3604 26.8125 27.6026 26.8125 26.8125ZM77.4583 62.5625C77.4583 59.402 78.7138 56.371 80.9487 54.1362C83.1835 51.9013 86.2145 50.6458 89.375 50.6458C92.5355 50.6458 95.5666 51.9013 97.8014 54.1362C100.036 56.371 101.292 59.402 101.292 62.5625V80.4375C101.292 83.598 100.036 86.6291 97.8014 88.8639C95.5666 91.0987 92.5355 92.3542 89.375 92.3542C86.2145 92.3542 83.1835 91.0987 80.9487 88.8639C78.7138 86.6291 77.4583 83.598 77.4583 80.4375V62.5625ZM89.375 56.6042C87.7948 56.6042 86.2792 57.2319 85.1618 58.3493C84.0444 59.4667 83.4167 60.9823 83.4167 62.5625V80.4375C83.4167 82.0178 84.0444 83.5333 85.1618 84.6507C86.2792 85.7681 87.7948 86.3958 89.375 86.3958C90.9553 86.3958 92.4708 85.7681 93.5882 84.6507C94.7056 83.5333 95.3333 82.0178 95.3333 80.4375V62.5625C95.3333 60.9823 94.7056 59.4667 93.5882 58.3493C92.4708 57.2319 90.9553 56.6042 89.375 56.6042ZM113.208 77.4583H104.271V71.5H113.208C115.579 71.5 117.852 72.4416 119.528 74.1177C121.204 75.7939 122.146 78.0671 122.146 80.4375C122.146 82.8079 121.204 85.0812 119.528 86.7573C117.852 88.4334 115.579 89.375 113.208 89.375C112.418 89.375 111.66 89.6889 111.102 90.2476C110.543 90.8063 110.229 91.5641 110.229 92.3542V95.3333H122.146V101.292H107.25C106.46 101.292 105.702 100.978 105.143 100.419C104.585 99.8604 104.271 99.1026 104.271 98.3125V92.3542C104.271 89.9838 105.212 87.7105 106.889 86.0344C108.565 84.3583 110.838 83.4167 113.208 83.4167C113.998 83.4167 114.756 83.1028 115.315 82.5441C115.874 81.9854 116.188 81.2276 116.188 80.4375C116.188 79.6474 115.874 78.8896 115.315 78.3309C114.756 77.7722 113.998 77.4583 113.208 77.4583Z" fill="#3E3E3E"/>
</svg>
