<svg width="63" height="63" viewBox="0 0 63 63" fill="none" xmlns="http://www.w3.org/2000/svg">
<path d="M33.3703 21.3373C32.826 20.8815 32.2028 20.6532 31.5 20.6532C30.7972 20.6532 30.1691 20.8815 29.6179 21.3373C29.0666 21.7931 28.6394 22.6101 28.3352 23.7884C27.9366 25.3171 27.7367 27.8913 27.7367 31.5118C27.7367 35.1294 27.9159 37.6179 28.2742 38.9714C28.6315 40.3249 29.0834 41.2266 29.6297 41.6745C30.174 42.1244 30.7972 42.3478 31.5 42.3478C32.2028 42.3478 32.8309 42.1214 33.3821 41.6656C33.9344 41.2079 34.3606 40.3909 34.6648 39.2126C35.0634 37.6976 35.2633 35.1314 35.2633 31.5128C35.2633 27.8923 35.0841 25.4067 34.7258 24.0512C34.3685 22.6987 33.9166 21.7931 33.3703 21.3373" fill="white"/>
<path d="M31.5 1.96875C15.1909 1.96875 1.96875 15.1909 1.96875 31.5C1.96875 47.8091 15.1909 61.0312 31.5 61.0312C47.8091 61.0312 61.0312 47.8091 61.0312 31.5C61.0312 15.1909 47.8091 1.96875 31.5 1.96875ZM38.366 44.0951C36.7251 46.1987 34.4364 47.25 31.5 47.25C28.5498 47.25 26.1706 46.0963 24.3653 43.7889C22.5599 41.4806 21.6562 37.3679 21.6562 31.4488C21.6562 25.641 22.6495 21.4613 24.634 18.9079C26.2749 16.8043 28.5636 15.75 31.5 15.75C34.4364 15.75 36.732 16.8151 38.3867 18.9492C40.3584 21.4741 41.3438 25.6617 41.3438 31.5118C41.3438 37.3462 40.3505 41.5416 38.366 44.0951Z" fill="white"/>
</svg>
