<svg width="100" height="100" viewBox="0 0 100 100" fill="none" xmlns="http://www.w3.org/2000/svg">
<path d="M90.625 6.25H9.375C4.19922 6.25 0 10.4492 0 15.625V84.375C0 89.5508 4.19922 93.75 9.375 93.75H90.625C95.8008 93.75 100 89.5508 100 84.375V15.625C100 10.4492 95.8008 6.25 90.625 6.25ZM74.2969 62.9883C75.2344 63.9258 75.2344 65.4492 74.2969 66.3867L66.3867 74.2969C65.4492 75.2344 63.9258 75.2344 62.9883 74.2969L50 61.1914L37.0117 74.2969C36.0742 75.2344 34.5508 75.2344 33.6133 74.2969L25.7031 66.3867C24.7656 65.4492 24.7656 63.9258 25.7031 62.9883L38.8086 50L25.7031 37.0117C24.7656 36.0742 24.7656 34.5508 25.7031 33.6133L33.6133 25.7031C34.5508 24.7656 36.0742 24.7656 37.0117 25.7031L50 38.8086L62.9883 25.7031C63.9258 24.7656 65.4492 24.7656 66.3867 25.7031L74.2969 33.6133C75.2344 34.5508 75.2344 36.0742 74.2969 37.0117L61.1914 50L74.2969 62.9883Z" fill="#F24E1E"/>
</svg>
