<svg width="119" height="117" viewBox="0 0 119 117" fill="none" xmlns="http://www.w3.org/2000/svg">
<path d="M41.9565 13.4512L34.6637 20.7595L26.1936 12.2665L33.2383 5.20693L28.0472 0L0 28.1067L5.19105 33.3088L12.2357 26.2492L20.7107 34.7421L13.4179 42.0504L76.4694 105.236L102.736 105.84L113.872 117L119 116.444L105.582 102.998L104.979 76.6755L41.9565 13.4512ZM41.9565 21.7784L73.9882 53.8781L53.8079 74.1013L45.654 65.9399L55.7734 55.799L51.4921 51.5087L41.3727 61.6495L33.8318 54.0926L43.9512 43.9518L39.6699 39.6614L29.5505 49.8023L21.7956 42.0309L41.9565 21.7784Z" fill="red"/>
</svg>
